<svg id="katman_1" data-name="katman 1" xmlns="http://www.w3.org/2000/svg" viewBox="0 0 241.43 164.39"><rect width="241.43" height="164.39" fill="#656d78"/><rect x="14.54" y="12.34" width="212.35" height="139.71" fill="#e6e9ee"/><circle cx="54.81" cy="102.6" r="18.08" fill="#8f8fcc"/><ellipse cx="46.2" cy="104.14" rx="2.55" ry="3.06" fill="#ffb37f"/><ellipse cx="63.57" cy="103.93" rx="2.55" ry="3.06" fill="#ffb37f"/><ellipse cx="54.94" cy="100.02" rx="10.48" ry="10.63" fill="#2d211b"/><circle cx="54.94" cy="104.17" r="9.97" fill="#ffc695"/><circle cx="51" cy="102.37" r="0.97" fill="#040405"/><circle cx="59.22" cy="102.37" r="0.97" fill="#040405"/><path d="M52.87,108.7H57S55.27,111.94,52.87,108.7Z" fill="#f99f6d"/><path d="M46.2,98.93h4.17l1-3.05L52,98.93h6.12l.85-3.05.6,3.05h4.4S55.29,86.16,46.2,98.93Z" fill="#2d211b"/><path d="M46.39,112.42S40.82,107,43.92,99.51c0,0,1.38-3.72,3.4-4.63a4,4,0,0,0,.94.09l1.38-1.84.19-.36h-.36S45,89.13,40.88,94.6a8.53,8.53,0,0,0-1.62,6.89S40.66,111.21,46.39,112.42Z" fill="#2d211b"/><path d="M64.34,111.92s5.19-5.77,1.59-13c0,0-1.63-3.61-3.71-4.39a3.85,3.85,0,0,1-.94.15l-1.5-1.74-.21-.34.35,0s4.18-4,8.7,1.23a8.53,8.53,0,0,1,2.09,6.76S70,110.33,64.34,111.92Z" fill="#2d211b"/><g id="Group_59" data-name="Group 59"><path id="Path_41222" data-name="Path 41222" d="M56.77,30.72A17.38,17.38,0,1,1,39.39,48.1,17.38,17.38,0,0,1,56.77,30.72Z" fill="#8f8fcc"/><ellipse id="Ellipse_22" data-name="Ellipse 22" cx="46.84" cy="48.58" rx="2.06" ry="2.76" fill="#ffb37f"/><ellipse id="Ellipse_23" data-name="Ellipse 23" cx="65.71" cy="48.58" rx="2.06" ry="2.76" fill="#ffb37f"/><ellipse id="Ellipse_24" data-name="Ellipse 24" cx="56.77" cy="48.1" rx="9.33" ry="10.06" fill="#ffc695"/><circle id="Ellipse_25" data-name="Ellipse 25" cx="51.7" cy="49.11" r="1.01" fill="#040405"/><circle id="Ellipse_26" data-name="Ellipse 26" cx="61.17" cy="49.11" r="1.01" fill="#040405"/><rect id="Rectangle_81" data-name="Rectangle 81" x="54.81" y="50.29" width="3.07" height="1.97" rx="0.81" fill="#f99f6d"/><path id="Path_41220" data-name="Path 41220" d="M58.54,53.77c-2.06,3.29-4.21,0-4.21,0Z" fill="#f99f6d"/><path id="Path_41221" data-name="Path 41221" d="M47.61,45.84s.53-4.49,8-1.72c0,0,8.07-3.09,9.68,1l.66,1s1.1-7.18-6.06-12.39l-7.79,3S45.71,39.85,47.61,45.84Z" fill="#2d211b"/></g><polygon points="120.72 12.34 98.67 12.34 80.94 0 156.33 0 140.15 12.34 120.72 12.34" fill="#7d37fa"/><rect x="107.15" y="33.64" width="105.13" height="9.84" rx="4.92" fill="#ccd0d9"/><rect x="107.15" y="99.01" width="105.13" height="9.84" rx="4.92" fill="#ccd0d9"/><rect x="144.07" y="113.55" width="68.22" height="9.84" rx="4.92" fill="#ccd0d9"/><rect x="107.02" y="63.15" width="68.22" height="9.84" rx="4.92" fill="#ccd0d9"/><rect x="107.15" y="48.39" width="105.13" height="9.84" rx="4.92" fill="#ccd0d9"/><rect x="107.15" y="84.47" width="105.13" height="9.84" rx="4.92" fill="#ccd0d9"/></svg>