<svg id="katman_1" data-name="katman 1" xmlns="http://www.w3.org/2000/svg" viewBox="0 0 314.3 314.3"><circle cx="157.15" cy="157.15" r="157.15" fill="#8f8fcc"/><path d="M92.26,267.77" transform="translate(0 0)" fill="#7c37fa"/><rect x="92.56" y="179.1" width="23.49" height="98.85" rx="11.74" fill="#1d1d1b"/><rect x="118.23" y="177.84" width="21.57" height="100.1" rx="10.78" fill="#1d1d1b"/><rect x="161.99" y="177.84" width="21.57" height="100.1" rx="10.78" fill="#1d1d1b"/><ellipse cx="185.78" cy="58.49" rx="22.57" ry="22.97" fill="#ffc695"/><ellipse id="Ellipse_22" data-name="Ellipse 22" cx="93.09" cy="61.55" rx="5.1" ry="6.84" fill="#ffb37f"/><ellipse id="Ellipse_23" data-name="Ellipse 23" cx="139.82" cy="61.55" rx="5.1" ry="6.84" fill="#ffb37f"/><ellipse id="Ellipse_24" data-name="Ellipse 24" cx="117.68" cy="60.36" rx="23.12" ry="24.9" fill="#ffc695"/><circle id="Ellipse_25" data-name="Ellipse 25" cx="105.13" cy="62.85" r="2.49" fill="#040405"/><circle id="Ellipse_26" data-name="Ellipse 26" cx="128.58" cy="62.85" r="2.49" fill="#040405"/><path id="Path_41220" data-name="Path 41220" d="M122.08,74.41c-5.06,8.14-10.42,0-10.42,0Z" transform="translate(0 0)" fill="#f99f6d"/><path d="M95.06,55.24" transform="translate(0 0)" fill="#2d211b"/><path d="M96.14,55.24H97.9a1,1,0,0,0,1-1h0V51.34a1,1,0,0,1,.74-1L111,47a19,19,0,0,1,10.89,0l11.79,3.42a1,1,0,0,1,.76,1v2.28a1,1,0,0,0,1,1h3.89a1,1,0,0,0,1.09-.93,1.21,1.21,0,0,0-.08-.46c-1.58-4.4-7.66-17.77-22.74-17.86h-.07C116.7,35.35,100.4,34.2,95.13,54a1,1,0,0,0,.76,1.27Z" transform="translate(0 0)" fill="#2d211b"/><path d="M178.53,88.05h-22S161.5,61.17,161.61,50" transform="translate(0 0)" fill="#2d211b"/><path d="M191.23,87.62h22.18s-5-26.94-5.06-38.16" transform="translate(0 0)" fill="#2d211b"/><ellipse cx="167.25" cy="62.94" rx="5.48" ry="6.59" fill="#ffb37f"/><ellipse cx="203.45" cy="62.49" rx="5.48" ry="6.59" fill="#ffb37f"/><circle cx="185.46" cy="63.8" r="21.46" fill="#ffc695"/><circle cx="176.98" cy="59.13" r="2.09" fill="#040405"/><circle cx="194.67" cy="59.13" r="2.09" fill="#040405"/><path d="M181,72.74h8.9S186.18,79.73,181,72.74Z" transform="translate(0 0)" fill="#f99f6d"/><path d="M166.28,53.39" transform="translate(0 0)" fill="#2d211b"/><path d="M179.38,33.42h11.15a17.82,17.82,0,0,1,17.82,17.82H161.56a17.82,17.82,0,0,1,17.82-17.82Z" transform="translate(0 0)" fill="#2d211b"/><path d="M168.1,50.43A24.92,24.92,0,0,0,165,56.71s0-.21-.75.36l-2.46-6.64" transform="translate(0 0)" fill="#2d211b"/><path d="M202.84,50.43s2.73,4,2.79,5.19l2.29-5.19Z" transform="translate(0 0)" fill="#2d211b"/><rect x="75.12" y="107.66" width="14.8" height="63.62" rx="6.23" fill="#ffc695"/><rect x="217.58" y="100.59" width="14.8" height="63.62" rx="6.23" transform="translate(-27.72 66.92) rotate(-15.95)" fill="#ffc695"/><path d="M75.27,112.37H89.58s1.34-4.34,3-.36h59.62V93.6h-73S73.54,100.86,75.27,112.37Z" transform="translate(0 0)" fill="#332156"/><path d="M152.22,93.6c-8.58-9.21-15.16-8.88-15.16-8.88H100c-16.12-.51-20.77,8.88-20.77,8.88" transform="translate(0 0)" fill="#332156"/><path d="M227.51,112.37H211.77s-2.18-4-3.3,0L152.22,112v-18s7.58-8.48,18.57-9.08l32.79-.11S222.59,83.5,227.51,112.37Z" transform="translate(0 0)" fill="#7c37fa"/><polyline points="152.22 111.99 152.22 191.46 92.59 191.46 92.59 111.99" fill="#332156"/><rect x="188.64" y="188.58" width="18.65" height="89.36" rx="9.31" fill="#1d1d1b"/><path d="M208.47,112.37l23.7,83.51a2.64,2.64,0,0,1-2.58,2.3l-19.46-.6-57.91,2.7V110.45" transform="translate(0 0)" fill="#7c37fa"/><path d="M142.16,227.6h19.16a2.17,2.17,0,0,1,2.17,2.17v43.37H139.93V229.77a2.17,2.17,0,0,1,2.16-2.17h.07Z" transform="translate(0 0)" fill="#7c37fa"/><path d="M150.36,271.05s-7.14,8.24-8.18,8.24h10.95" transform="translate(0 0)" fill="#7c37fa"/><path d="M152.06,270.46s7.06,8.83,8.07,8.83H149.26" transform="translate(0 0)" fill="#7c37fa"/><path d="M109.83,168.16h0a6.74,6.74,0,0,1,9.51,0l27.78,27.78a6.74,6.74,0,0,1,0,9.51h0a6.74,6.74,0,0,1-9.51,0l-27.78-27.78A6.74,6.74,0,0,1,109.83,168.16Z" transform="translate(0 0)" fill="#ffc695"/><path d="M192.14,176.86,163,206a6.5,6.5,0,0,1-9.21,0h0a6.5,6.5,0,0,1,0-9.21l29.11-29.11a6.52,6.52,0,0,1,9.21,0h0A6.5,6.5,0,0,1,192.14,176.86Z" transform="translate(0 0)" fill="#ffc695"/><path d="M153.29,274.14V244.42a6.74,6.74,0,0,1,6.74-6.74h0a6.74,6.74,0,0,1,6.74,6.74v29.72a6.74,6.74,0,0,1-6.74,6.74h0A6.74,6.74,0,0,1,153.29,274.14Z" transform="translate(0 0)" fill="#3a3a38"/><path d="M136.66,274.14V244.42a6.74,6.74,0,0,1,6.74-6.74h0a6.74,6.74,0,0,1,6.74,6.74v29.72a6.74,6.74,0,0,1-6.74,6.74h0A6.74,6.74,0,0,1,136.66,274.14Z" transform="translate(0 0)" fill="#3a3a38"/><rect x="136.65" y="187.32" width="30.07" height="56.79" fill="#3a3a38"/><circle cx="147.15" cy="169.1" r="0.96" fill="#040405"/><circle cx="156.19" cy="169.99" r="0.96" fill="#040405"/><path d="M147.27,176.29h8.92S152.44,179.77,147.27,176.29Z" transform="translate(0 0)" fill="#f99f6d"/><polygon points="132.38 181.2 123.63 191.46 136.65 204.49 136.65 231.69 166.74 231.69 166.74 202.88 178.82 190.78 168.31 182.28 163.47 187.12 138.51 187.33 132.38 181.2" fill="#6a50aa"/><ellipse id="Ellipse_22-2" data-name="Ellipse 22-2" cx="140.16" cy="176.22" rx="2.41" ry="3.23" fill="#ffb37f"/><ellipse id="Ellipse_23-2" data-name="Ellipse 23-2" cx="162.28" cy="176.22" rx="2.41" ry="3.23" fill="#ffb37f"/><ellipse id="Ellipse_24-2" data-name="Ellipse 24-2" cx="151.8" cy="175.66" rx="10.94" ry="11.79" fill="#ffc695"/><circle id="Ellipse_25-2" data-name="Ellipse 25-2" cx="145.87" cy="176.84" r="1.18" fill="#040405"/><circle id="Ellipse_26-2" data-name="Ellipse 26-2" cx="156.96" cy="176.84" r="1.18" fill="#040405"/><rect id="Rectangle_81" data-name="Rectangle 81" x="149.51" y="178.23" width="3.6" height="2.31" rx="0.95" fill="#f99f6d"/><path id="Path_41220-2" data-name="Path 41220-2" d="M153.88,182.3c-2.42,3.85-4.93,0-4.93,0Z" transform="translate(0 0)" fill="#f99f6d"/><path id="Path_41221" data-name="Path 41221" d="M141.07,173s.62-5.27,9.41-2c0,0,9.46-3.63,11.35,1.11l.76,1.15s1.29-8.42-7.06-14.52l-9.13,3.46S138.84,166,141.07,173Z" transform="translate(0 0)" fill="#2d211b"/></svg>