<svg id="katman_1" data-name="katman 1" xmlns="http://www.w3.org/2000/svg" viewBox="0 0 314.3 314.3"><circle cx="157.15" cy="157.15" r="157.15" fill="#8f8fcc"/><path d="M130.27,272H41.44c-.1,0,19.94-108.57,20.23-153.81" transform="translate(0 0)" fill="#2d211b"/><path d="M181.53,270.28H271c.1,0-20.08-108.82-20.37-154.17" transform="translate(0 0)" fill="#2d211b"/><ellipse cx="84.65" cy="170.57" rx="22.17" ry="26.64" fill="#ffb37f"/><ellipse cx="230.93" cy="168.74" rx="22.17" ry="26.64" fill="#ffb37f"/><circle cx="158.27" cy="170.83" r="86.71" fill="#ffc695"/><circle cx="123.98" cy="155.18" r="8.43" fill="#040405"/><circle cx="195.46" cy="155.18" r="8.43" fill="#040405"/><path d="M140.26,210.2h36S161.13,238.37,140.26,210.2Z" transform="translate(0 0)" fill="#f99f6d"/><path d="M70.44-177.83" transform="translate(0 0)" fill="#2d211b"/><path d="M-395.74,98.76" transform="translate(0 0)" fill="#2d211b"/><path d="M80.75,132" transform="translate(0 0)" fill="#2d211b"/><circle cx="123.98" cy="155.18" r="22.79" fill="#c9c3c0" opacity="0.51"/><circle cx="195.46" cy="155.18" r="22.79" fill="#c9c3c0" opacity="0.51"/><circle cx="195.46" cy="155.18" r="22.79" fill="none" stroke="#2d211b" stroke-miterlimit="10"/><circle cx="123.98" cy="155.18" r="22.79" fill="none" stroke="#2d211b" stroke-miterlimit="10"/><line x1="146.77" y1="153.93" x2="172.67" y2="153.93" fill="none" stroke="#2d211b" stroke-miterlimit="10"/><path d="M133.64,47.89H178.7a72,72,0,0,1,72,72v0a0,0,0,0,1,0,0H61.64a0,0,0,0,1,0,0v0A72,72,0,0,1,133.64,47.89Z" fill="#2d211b"/><path d="M88.1,119.89s-10.18,14.86-12.71,25.38c0,0,.2-.86-3,1.48l-9.92-26.86" transform="translate(0 0)" fill="#2d211b"/><path d="M228.45,119.89s11,16,11.23,21l9.25-21Z" transform="translate(0 0)" fill="#2d211b"/><line x1="101.48" y1="151.54" x2="78.44" y2="136.86" fill="none" stroke="#2d211b" stroke-miterlimit="10"/><line x1="218.25" y1="151.54" x2="241.29" y2="136.86" fill="none" stroke="#2d211b" stroke-miterlimit="10"/></svg>