<svg id="katman_1" data-name="katman 1" xmlns="http://www.w3.org/2000/svg" viewBox="0 0 314.3 314.3"><circle cx="157.15" cy="157.15" r="157.15" fill="#8f8fcc"/><ellipse cx="82.33" cy="170.57" rx="22.17" ry="26.64" fill="#ffb37f"/><ellipse cx="233.28" cy="168.74" rx="22.17" ry="26.64" fill="#ffb37f"/><ellipse cx="158.27" cy="134.73" rx="91.1" ry="92.43" fill="#2d211b"/><circle cx="158.27" cy="170.83" r="86.71" fill="#ffc695"/><circle cx="123.98" cy="155.18" r="8.43" fill="#040405"/><circle cx="195.46" cy="155.18" r="8.43" fill="#040405"/><path d="M146.61,220.16h36S167.48,248.33,146.61,220.16Z" transform="translate(-6.35 -9.96)" fill="#f99f6d"/><path d="M88.68,135.21h36.24l9-26.48,4.8,26.48h53.22l7.36-26.48,5.26,26.48h38.19S167.67,24.21,88.68,135.21Z" transform="translate(-6.35 -9.96)" fill="#2d211b"/><path d="M76.79-167.87" transform="translate(-6.35 -9.96)" fill="#2d211b"/><path d="M90.3,252.49s-48.45-47-21.49-112.23c0,0,12-32.28,29.55-40.2,0,0,7.77,1.32,8.21.74l12-16,1.62-3.07h-3.08S78.58,50,42.39,97.57c0,0-21.25,24.47-14.07,59.93C28.32,157.5,40.48,242,90.3,252.49Z" transform="translate(-6.35 -9.96)" fill="#2d211b"/><path d="M246.35,248.21S291.48,198,260.14,134.77c0,0-14.15-31.39-32.23-38.09,0,0-7.66,1.85-8.13,1.29L206.7,82.86l-1.82-3,3.07-.21s36.28-34.35,75.64,10.69c0,0,22.86,23,18.12,58.83C301.71,149.21,295.34,234.32,246.35,248.21Z" transform="translate(-6.35 -9.96)" fill="#2d211b"/></svg>