<svg xmlns="http://www.w3.org/2000/svg" width="310.304" height="310.304" viewBox="0 0 310.304 310.304">
  <g id="Group_59" data-name="Group 59" transform="translate(-142.486 -144.13)">
    <path id="Path_41222" data-name="Path 41222" d="M155.152,0A155.152,155.152,0,1,1,0,155.152,155.152,155.152,0,0,1,155.152,0Z" transform="translate(142.486 144.13)" fill="#8f8fcc"/>
    <ellipse id="Ellipse_22" data-name="Ellipse 22" cx="18.391" cy="24.652" rx="18.391" ry="24.652" transform="translate(190.565 278.935)" fill="#ffb37f" style="isolation: isolate"/>
    <ellipse id="Ellipse_23" data-name="Ellipse 23" cx="18.391" cy="24.652" rx="18.391" ry="24.652" transform="translate(359.081 278.935)" fill="#ffb37f" style="isolation: isolate"/>
    <ellipse id="Ellipse_24" data-name="Ellipse 24" cx="83.348" cy="89.804" rx="83.348" ry="89.804" transform="translate(214.29 209.478)" fill="#ffc695" style="isolation: isolate"/>
    <circle id="Ellipse_25" data-name="Ellipse 25" cx="9" cy="9" r="9" transform="translate(243.391 299.283)" fill="#040405"/>
    <circle id="Ellipse_26" data-name="Ellipse 26" cx="9" cy="9" r="9" transform="translate(327.913 299.283)" fill="#040405"/>
    <rect id="Rectangle_81" data-name="Rectangle 81" width="27.407" height="17.609" rx="7.239" transform="translate(280.158 318.883)" fill="#f99f6d" style="isolation: isolate"/>
    <path id="Path_41220" data-name="Path 41220" d="M313.435,349.957c-18.392,29.347-37.565,0-37.565,0Z" fill="#f99f6d" style="isolation: isolate"/>
    <path id="Path_41221" data-name="Path 41221" d="M215.879,279.085s4.693-40.061,71.688-15.3c0,0,72.058-27.654,86.47,8.459l5.842,8.776s9.8-64.186-54.076-110.674l-69.591,26.414S198.916,225.642,215.879,279.085Z" fill="#2d211b" style="isolation: isolate"/>
  </g>
</svg>
