<svg id="katman_1" data-name="katman 1" xmlns="http://www.w3.org/2000/svg" viewBox="0 0 310.3 310.3"><path d="M70.44-177.83" transform="translate(-2 -2)" fill="#2d211b"/><path d="M-395.74,98.76" transform="translate(-2 -2)" fill="#2d211b"/><path id="Path_41222" data-name="Path 41222" d="M157.15,2A155.15,155.15,0,1,1,2,157.15,155.15,155.15,0,0,1,157.15,2Z" transform="translate(-2 -2)" fill="#8f8fcc"/><ellipse id="Ellipse_22" data-name="Ellipse 22" cx="66.47" cy="159.46" rx="18.39" ry="24.65" fill="#ffb37f"/><ellipse id="Ellipse_23" data-name="Ellipse 23" cx="234.99" cy="159.46" rx="18.39" ry="24.65" fill="#ffb37f"/><ellipse id="Ellipse_24" data-name="Ellipse 24" cx="155.15" cy="155.15" rx="83.35" ry="89.8" fill="#ffc695"/><circle id="Ellipse_25" data-name="Ellipse 25" cx="109.91" cy="164.15" r="9" fill="#040405"/><circle id="Ellipse_26" data-name="Ellipse 26" cx="194.43" cy="164.15" r="9" fill="#040405"/><path id="Path_41220" data-name="Path 41220" d="M173,207.82c-18.39,29.35-37.57,0-37.57,0Z" transform="translate(-2 -2)" fill="#f99f6d"/><circle cx="109.91" cy="164.15" r="21.33" fill="#d5d5e2" opacity="0.47"/><circle cx="194.43" cy="164.15" r="21.33" fill="#d5d5e2" opacity="0.47"/><ellipse cx="109.9" cy="164.53" rx="21.32" ry="21.71" fill="none" stroke="#000" stroke-miterlimit="10"/><ellipse cx="194.43" cy="164.53" rx="21.32" ry="21.71" fill="none" stroke="#000" stroke-miterlimit="10"/><line x1="131.7" y1="164.53" x2="173.1" y2="164.53" fill="none" stroke="#000" stroke-miterlimit="10"/><path d="M75.56,138.71" transform="translate(-2 -2)" fill="#2d211b"/><path d="M79.37,138.71h6.47a3.79,3.79,0,0,0,3.8-3.78V124.65a3.77,3.77,0,0,1,2.7-3.61l40.88-12.22a69.29,69.29,0,0,1,39.26-.13l42.41,12.36a3.78,3.78,0,0,1,2.72,3.62V133a3.79,3.79,0,0,0,3.8,3.77h13.87a3.77,3.77,0,0,0,3.58-5c-5.74-15.92-27.64-64.1-82.09-64.42l-.27,0c-3.13-.27-62-4.43-80.81,66.67A3.78,3.78,0,0,0,79.37,138.71Z" transform="translate(-2 -2)" fill="#2d211b"/><line x1="88.59" y1="165.24" x2="74.27" y2="134.6" fill="none" stroke="#000" stroke-miterlimit="10"/><line x1="215.75" y1="164.53" x2="236.18" y2="132.76" fill="none" stroke="#000" stroke-miterlimit="10"/></svg>